<svg width="40" height="24" viewBox="0 0 40 24" fill="none" xmlns="http://www.w3.org/2000/svg">
<path d="M40 11.9999C40 5.48374 34.7097 0.128906 28.129 0.128906C25.2903 0.128906 22.7097 1.09665 20.6452 2.77407C22.1935 4.25794 23.4194 6.12891 24 8.25794H23.0323C22.3871 6.38697 21.3548 4.70955 19.9355 3.35471C18.5161 4.70955 17.4839 6.38697 16.8387 8.25794H15.871C16.5161 6.12891 17.6774 4.25794 19.2258 2.77407C17.1613 1.09665 14.6452 0.128906 11.8065 0.128906C5.29032 0.128906 0 5.48374 0 11.9999C0 18.516 5.29032 23.8708 11.871 23.8708C14.7097 23.8708 17.2903 22.8386 19.2903 21.2257C17.7419 19.7418 16.5806 17.8708 15.9355 15.7418H16.9032C17.5484 17.6128 18.5806 19.2902 20 20.645C21.4194 19.2902 22.5161 17.6128 23.0968 15.7418H24.0645C23.4194 17.8708 22.2581 19.7418 20.7097 21.2257C22.7742 22.9031 25.3548 23.8708 28.1935 23.8708C34.7097 23.8708 40 18.516 40 11.9999Z" fill="#858FA4"/>
<path d="M31.2891 14.7738L32.1278 10.3867H33.16L33.2891 10.8383C33.4826 10.6448 33.8052 10.3867 34.4503 10.3867L34.1278 11.548C33.8052 11.548 33.2891 11.4835 32.902 12.7738L32.5149 14.7738H31.2891Z" fill="#1A1A25"/>
<path d="M15.481 9.29004H16.6423L16.3842 10.4513H17.0294L16.8358 11.3546H16.2552L15.9326 13.0965C15.8681 13.4191 15.9326 13.7417 16.5777 13.6126L16.4487 14.5804C16.1906 14.7739 15.8681 14.7739 15.5455 14.7739C15.2874 14.7739 14.3842 14.5804 14.5777 13.4191L15.481 9.29004Z" fill="#1A1A25"/>
<path d="M20.6447 12.8383C20.7737 12.1287 21.0963 10.3867 19.0318 10.3867C17.0963 10.3867 16.8382 12.3222 16.8382 12.5803C16.7737 12.8383 16.7737 14.7738 18.8382 14.7738C19.3544 14.7738 20.064 14.7093 20.3866 14.5803L20.5802 13.677C20.3866 13.7416 19.7415 13.8061 19.2253 13.8061C18.7737 13.8061 17.9995 13.8061 18.1286 12.8383H20.6447Z" fill="#1A1A25"/>
<path d="M14.3235 11.419L14.5815 10.5158C14.0009 10.3223 13.5493 10.3223 13.4202 10.3223C13.2267 10.3223 11.8073 10.3223 11.6138 11.3545C11.4202 12.1932 11.7428 12.5158 12.0009 12.6448C12.4525 12.8384 12.7106 13.0319 12.9686 13.161C13.2912 13.29 13.2267 13.8061 12.8396 13.8061C12.646 13.8061 11.8718 13.8707 11.2912 13.6771L11.0977 14.5803C11.6783 14.7094 12.0654 14.7094 12.517 14.7094C12.8396 14.7094 14.2589 14.7739 14.4525 13.4836C14.5815 12.8384 14.2589 12.5803 14.0654 12.3868C13.8073 12.2577 13.4848 11.9997 13.2267 11.9352C12.9686 11.8061 12.7751 11.419 13.2267 11.29C13.4202 11.3545 14.0009 11.3545 14.3235 11.419Z" fill="#1A1A25"/>
<path d="M6.57964 14.7737L7.61189 9.4834H5.6119L4.19254 12.7092L3.93448 9.4834H2.06351L1.03125 14.7737H2.19254L2.96673 10.9673L3.28931 14.7737H4.38609L6.06351 11.0318L5.35383 14.7737H6.57964Z" fill="#1A1A25"/>
<path d="M7.93298 10.5161L7.73943 11.4838C8.06201 11.4838 8.8362 11.3548 9.2233 11.3548C9.61039 11.3548 10.1265 11.2903 9.93297 11.9354C9.61039 11.9354 7.48136 11.6129 7.15878 13.4838C7.02975 14.3871 7.80394 14.8387 8.38459 14.8387C8.96523 14.8387 9.15878 14.7096 9.35233 14.5806L9.48136 14.8387H10.5781L11.0297 12.4516C11.1588 11.8709 11.3523 10.4516 9.35233 10.4516C9.09427 10.387 8.70717 10.387 7.93298 10.5161Z" fill="#1A1A25"/>
<path d="M27.226 10.7094C26.9035 10.5159 26.7099 10.5159 26.3228 10.5159C25.9357 10.5159 25.0325 10.903 24.9035 11.9352C24.7099 13.2256 25.5486 13.8062 26.7744 13.4191L27.097 14.5159C26.7099 14.7094 26.3228 14.774 25.6777 14.774C24.4519 14.774 23.097 13.6772 23.6777 11.4191C24.1293 9.80621 25.5486 9.16105 26.3873 9.22557C27.3551 9.29008 27.7422 9.61266 28.0002 9.93524L27.226 10.7094Z" fill="#1A1A25"/>
<path d="M37.3537 10.903C37.0956 10.7095 36.9666 10.3869 36.4505 10.3869C35.8053 10.3869 34.7731 10.2578 34.1924 12.2578C33.8053 13.6127 34.5795 14.774 35.4182 14.774C35.8053 14.774 36.1924 14.5804 36.4505 14.4514L36.5795 14.774H37.8698L38.9021 9.22559H37.6763L37.3537 10.903Z" fill="#1A1A25"/>
<path d="M28.0658 10.5161L27.8722 11.4838C28.1948 11.4838 28.969 11.3548 29.3561 11.3548C29.7432 11.3548 30.1948 11.2903 30.0658 11.9354C29.7432 11.9354 27.6142 11.6129 27.2916 13.4838C27.1626 14.3871 27.9368 14.8387 28.5174 14.8387C29.098 14.8387 29.2916 14.7096 29.4851 14.5806L29.6142 14.8387H30.7109L31.1626 12.4516C31.2916 11.8709 31.4851 10.4516 29.4851 10.4516C29.2916 10.387 28.84 10.387 28.0658 10.5161Z" fill="#1A1A25"/>
<path d="M18.1289 11.9998H19.6128C19.6773 11.5482 19.5483 11.2256 19.0966 11.2256C18.5805 11.2256 18.2579 11.4837 18.1289 11.9998Z" fill="#858FA4"/>
<path d="M9.74253 12.8384C9.54899 12.8384 9.09737 12.7094 8.71028 12.9674C8.32318 13.2255 8.19415 13.6771 8.64576 13.8061C9.03286 13.9352 9.54899 13.6771 9.67802 13.29L9.74253 12.8384Z" fill="#858FA4"/>
<path d="M36.967 12.7094C37.0961 12.3223 37.0316 11.8062 36.9025 11.6127C36.5154 11.0965 35.6767 11.4836 35.4187 12.4514C35.2251 13.0965 35.6122 13.5481 35.9993 13.5481C36.4509 13.5481 36.709 13.2256 36.967 12.7094Z" fill="#858FA4"/>
<path d="M29.9339 12.8384C29.7404 12.8384 29.2888 12.7094 28.9017 12.9674C28.5146 13.2255 28.3856 13.6771 28.8372 13.8061C29.2243 13.9352 29.8049 13.6771 29.8694 13.29L29.9339 12.8384Z" fill="#858FA4"/>
<path d="M20.6445 14.7743L21.4832 10.4517H22.5155L22.6445 10.9033C22.8381 10.7097 23.1607 10.4517 23.8058 10.4517L23.4832 11.613C23.2252 11.613 22.6445 11.5484 22.2574 12.8388L21.8703 14.8388H20.6445" fill="#1A1A25"/>
<path d="M11.8703 0.128906C6.64453 0.128906 2.19292 3.54826 0.644531 8.25794H15.9994C16.6445 6.12891 17.8058 4.25794 19.3542 2.77407C17.2252 1.16116 14.6445 0.128906 11.8703 0.128906Z" fill="#858FA4"/>
<path d="M19.9991 3.41943C18.5798 4.77427 17.5475 6.38718 16.9023 8.32266H23.0959C22.4507 6.45169 21.4185 4.77427 19.9991 3.41943Z" fill="#858FA4"/>
<path d="M28.1284 0.128906C25.2897 0.128906 22.709 1.09665 20.6445 2.77407C22.1929 4.25794 23.3542 6.12891 23.9994 8.25794H39.3542C37.8703 3.54826 33.4187 0.128906 28.1284 0.128906Z" fill="#858FA4"/>
</svg>
