<svg width="54" height="16" viewBox="0 0 54 16" fill="none" xmlns="http://www.w3.org/2000/svg">
<path d="M10.5428 2.04349C10.3503 1.65723 10.0457 1.33866 9.66761 1.09944C9.27319 0.857891 8.80759 0.688687 8.27547 0.588332C7.73402 0.49031 7.10855 0.445966 6.38389 0.438965L3.03831 0.4413C2.69057 0.445967 2.34983 0.716692 2.26814 1.05277L0.017144 10.8573C-0.0645408 11.1887 0.153674 11.4664 0.501418 11.4664H2.10361C2.45135 11.4664 2.79559 11.1968 2.87261 10.8573L3.42223 8.47675C3.49575 8.14534 3.83882 7.86878 4.19007 7.86878H4.64867C6.60794 7.86644 8.12494 7.46619 9.21485 6.66451C10.3106 5.86167 10.8509 4.80093 10.8509 3.48697C10.8497 2.91168 10.7552 2.42857 10.5428 2.04349ZM7.08754 5.2467C6.60327 5.60144 5.92995 5.77881 5.06176 5.77881H4.66967C4.32076 5.77881 4.10722 5.50342 4.18307 5.16735L4.66501 3.08555C4.73269 2.75181 5.08393 2.47525 5.42818 2.47758L5.95329 2.47408C6.56593 2.47408 7.03386 2.58027 7.3466 2.78565C7.65584 2.9887 7.81104 3.31194 7.8087 3.7402C7.81804 4.39134 7.56948 4.89195 7.08754 5.2467Z" fill="#858FA4"/>
<path d="M18.2683 3.44471C17.6638 3.10396 16.7093 2.93359 15.4046 2.93359C14.7593 2.93359 14.1164 2.98377 13.4664 3.08413C12.9868 3.15764 12.9401 3.17165 12.6449 3.23583C12.0357 3.36886 11.94 3.97682 11.94 3.97682L11.744 4.78317C11.6331 5.29778 11.9295 5.27795 12.0532 5.23477C12.3193 5.15542 12.4675 5.07373 13.0113 4.95237C13.5306 4.83451 14.0778 4.74583 14.5119 4.75166C15.1526 4.75166 15.6427 4.81934 15.9694 4.95704C16.2915 5.09707 16.4525 5.33746 16.4525 5.6852L16.4245 5.91159L16.1935 6.05395C15.2844 6.11113 14.6275 6.19515 13.8305 6.31067C13.051 6.4192 12.3671 6.60941 11.7988 6.86963C11.1885 7.13802 10.7358 7.49861 10.4195 7.95721C10.1138 8.41814 9.96094 8.9771 9.96094 9.63291C9.96094 10.2502 10.1827 10.7602 10.6132 11.1546C11.0462 11.542 11.618 11.731 12.3018 11.731C12.7347 11.7287 13.0696 11.6949 13.3077 11.6377L14.0837 11.3705L14.7407 11.0064L15.3451 10.6073L15.3533 10.619L15.2926 10.8757L15.2891 10.8862V10.8885C15.2238 11.2013 15.4128 11.458 15.7174 11.4883L15.7232 11.4953H15.7512H16.98H17.211L17.232 11.486C17.5518 11.4486 17.8517 11.1919 17.9217 10.8862L19.0898 5.8299L19.1505 5.41798L19.1785 5.03173C19.1831 4.31523 18.8739 3.78428 18.2683 3.44471ZM15.6847 9.12997L15.435 9.45904L14.8048 9.78461C14.5084 9.90481 14.2272 9.96548 13.967 9.96548C13.5726 9.96548 13.2633 9.90831 13.0545 9.79161L12.7452 9.19065C12.7452 8.86507 12.8199 8.60718 12.9798 8.40881L13.6589 7.9467C13.9495 7.84868 14.3042 7.76583 14.715 7.70865C15.0814 7.66314 15.8049 7.58029 15.8994 7.57796L16.0103 7.77283C15.9881 7.88369 15.7827 8.74255 15.6847 9.12997Z" fill="#858FA4"/>
<path d="M47.3698 3.45173C46.7619 3.11099 45.8085 2.93945 44.5074 2.93945C43.8621 2.93945 43.2179 2.98963 42.5703 3.09349C42.0895 3.1635 42.0417 3.17867 41.7453 3.24169C41.1373 3.37355 41.0428 3.98385 41.0428 3.98385L40.8467 4.78903C40.737 5.30364 41.0264 5.2803 41.1618 5.24063C41.429 5.16128 41.5726 5.08309 42.1117 4.95707C42.6286 4.84037 43.1806 4.75402 43.6158 4.75636C44.2541 4.75636 44.7443 4.8252 45.0698 4.9629C45.3942 5.10293 45.5529 5.34565 45.5529 5.6899L45.5284 5.91511L45.2997 6.06098C44.3813 6.11582 43.7232 6.19984 42.9344 6.31537C42.1572 6.42389 41.471 6.61293 40.9016 6.87432C40.2936 7.14388 39.835 7.50446 39.5223 7.96423C39.213 8.42517 39.0625 8.98296 39.0625 9.63293C39.0625 10.2549 39.2819 10.7649 39.7183 11.1569C40.1536 11.5432 40.7195 11.7369 41.4034 11.7369C41.8339 11.7322 42.1689 11.7042 42.4081 11.6424L43.1817 11.3787L43.8446 11.0146L44.4444 10.6108L44.4549 10.6237L44.4 10.8827L44.3942 10.8874L44.3965 10.892C44.3242 11.2048 44.5144 11.4638 44.8224 11.4918L44.8248 11.4977H44.8528C45.0547 11.4977 45.7525 11.4977 46.0851 11.4977H46.3114L46.3359 11.4895C46.6522 11.451 46.9509 11.1943 47.0174 10.885L48.189 5.83576L48.2509 5.4215L48.2847 5.03408C48.2859 4.31993 47.9801 3.79131 47.3698 3.45173ZM44.7921 9.13699L44.5319 9.46956L43.9076 9.7928C43.6112 9.91183 43.3288 9.97368 43.0732 9.97368C42.666 9.97368 42.3649 9.91533 42.1619 9.79864L41.8491 9.2C41.8491 8.87327 41.925 8.61771 42.0778 8.41583C42.233 8.22562 42.4699 8.06925 42.764 7.9549C43.0511 7.85687 43.4058 7.77752 43.8189 7.71801C44.183 7.6725 44.9041 7.58731 44.9975 7.58615L45.1107 7.78102C45.0943 7.89188 44.8878 8.74724 44.7921 9.13699Z" fill="#858FA4"/>
<path d="M39.6413 2.07932C39.4406 1.69073 39.1396 1.37683 38.7591 1.13178C38.3694 0.889057 37.9073 0.718686 37.367 0.620665C36.8361 0.526144 36.2024 0.4748 35.4824 0.473633L32.1322 0.475965C31.7833 0.4818 31.4484 0.752528 31.3678 1.0851L29.1145 10.8943C29.0328 11.2268 29.2569 11.5022 29.5976 11.5022L31.2021 11.4999C31.5429 11.5022 31.8918 11.2292 31.9723 10.8931L32.5149 8.51141C32.5943 8.18 32.9385 7.90111 33.2851 7.90344H33.7437C35.7053 7.90344 37.2258 7.49969 38.3204 6.70034C39.4021 5.89166 39.9494 4.83326 39.9494 3.51814C39.9436 2.94518 39.8444 2.46091 39.6413 2.07932ZM36.1861 5.2872C35.703 5.63494 35.0285 5.81231 34.165 5.81231H33.7659C33.4216 5.81581 33.1987 5.53575 33.2758 5.20201L33.7612 3.12372C33.8324 2.79115 34.1801 2.51225 34.5267 2.51575L35.046 2.51225C35.6621 2.51575 36.1242 2.61727 36.4393 2.82265C36.7532 3.02803 36.9014 3.3501 36.9049 3.7772C36.9084 4.42834 36.6668 4.93012 36.1861 5.2872Z" fill="#858FA4"/>
<path d="M53.3779 1.16323C53.4514 0.828321 53.2414 0.556427 52.8971 0.561094H51.4618C51.1677 0.561094 50.9028 0.779309 50.7733 1.0477L50.694 1.1714L50.6216 1.4888L48.6157 10.6072L48.5503 10.8872L48.5527 10.8942C48.4861 11.1941 48.6705 11.4205 48.9553 11.4637L48.9798 11.4975H50.4699C50.7617 11.4975 51.0359 11.2758 51.1607 11.0027L51.2378 10.886L53.3826 1.16439L53.3779 1.16323Z" fill="#858FA4"/>
<path d="M29.1544 3.05628C28.7752 3.06095 27.2337 3.05628 27.2337 3.05628C26.8883 3.05628 26.4448 3.33518 26.2255 3.66775C26.2255 3.66775 23.9313 7.60496 23.7084 8.00054L23.4423 7.99704L22.7282 3.69459C22.6488 3.35618 22.2953 3.06679 21.8553 3.06679L20.42 3.06912C20.0746 3.06912 19.8622 3.34452 19.9404 3.68059C19.9404 3.68059 21.0303 9.88279 21.2485 11.3426C21.3501 12.1478 21.2357 12.2913 21.2357 12.2913L19.8167 14.7629C19.6067 15.0989 19.7199 15.3732 20.0641 15.3732L21.7235 15.3708C22.0689 15.3708 22.5228 15.0989 22.7282 14.7617L29.1113 3.96532C29.1113 3.96649 29.7251 3.04345 29.1544 3.05628Z" fill="#858FA4"/>
</svg>
