<svg width="40" height="14" viewBox="0 0 40 14" fill="none" xmlns="http://www.w3.org/2000/svg">
<path d="M16.0172 1.04785L13.9844 12.9774H17.2356L19.2702 1.04785H16.0172Z" fill="#858FA4"/>
<path d="M11.2582 1.0611L8.07389 9.19674L7.73438 7.96832C7.10637 6.4882 5.32354 4.36252 3.23047 3.02289L6.14221 12.9715L9.58244 12.9656L14.7026 1.05859L11.2582 1.0611Z" fill="#858FA4"/>
<path d="M6.49914 1.91499C6.31016 1.18831 5.76243 0.971724 5.08258 0.945801H0.0418113L0 1.18329C3.92273 2.13491 6.51838 4.42784 7.59543 7.18488L6.49914 1.91499Z" fill="#858FA4"/>
<path d="M25.859 3.33473C26.9227 3.318 27.6937 3.55047 28.2924 3.7913L28.5859 3.92928L29.0258 1.34367C28.3819 1.102 27.3726 0.842773 26.1132 0.842773C22.9004 0.842773 20.6359 2.46087 20.6184 4.77972C20.5975 6.49315 22.2314 7.44979 23.4657 8.02093C24.7326 8.60629 25.1574 8.97841 25.1515 9.50105C25.1415 10.2996 24.1414 10.6659 23.2073 10.6659C21.9053 10.6659 21.2138 10.4861 20.1459 10.0413L19.7269 9.85059L19.2695 12.5207C20.0305 12.8543 21.4345 13.1411 22.8921 13.1562C26.3097 13.1562 28.5307 11.5573 28.5541 9.07959C28.5684 7.72407 27.7012 6.68966 25.8222 5.84089C24.6849 5.28731 23.9892 4.91937 23.9959 4.36077C23.9959 3.86489 24.5863 3.33473 25.859 3.33473Z" fill="#858FA4"/>
<path d="M37.3672 1.06104H34.8551C34.0749 1.06104 33.4946 1.27344 33.1517 2.05113L28.3242 12.9839H31.7385C31.7385 12.9839 32.2955 11.5138 32.4217 11.1919C32.7955 11.1919 36.1128 11.1969 36.5853 11.1969C36.6823 11.6134 36.9817 12.9839 36.9817 12.9839H39.9979L37.3672 1.06104ZM33.3575 8.75012C33.6251 8.06526 34.6528 5.41609 34.6528 5.41609C34.6352 5.44871 34.9179 4.72621 35.0859 4.27716L35.305 5.30571C35.305 5.30571 35.928 8.1539 36.0585 8.75012H33.3575Z" fill="#858FA4"/>
</svg>
