<svg width="27" height="28" viewBox="0 0 27 28" fill="none" xmlns="http://www.w3.org/2000/svg">
<path d="M21.1464 13.7524L18.8047 15.8682L20.9191 18.2084L23.2609 16.0927L21.1464 13.7524Z" fill="#858FA4"/>
<path d="M16.4823 15.6557L13.3594 18.4668L16.1719 21.5912L19.2948 18.7801L16.4823 15.6557Z" fill="#858FA4"/>
<path d="M25.3724 13.0076L23.8125 14.4136L25.2184 15.9735L26.7783 14.5675L25.3724 13.0076Z" fill="#858FA4"/>
<path d="M16.9847 4.09993L14.6406 6.20996L16.7506 8.55401L19.0947 6.44399L16.9847 4.09993Z" fill="#858FA4"/>
<path d="M23.3731 8.34643L21.8164 9.75293L23.2242 11.3111L24.781 9.90463L23.3731 8.34643Z" fill="#858FA4"/>
<path d="M14.2665 10.2433L11.1406 13.0571L13.9531 16.1815L17.079 13.3677L14.2665 10.2433Z" fill="#858FA4"/>
<path d="M12.0307 4.91897L8.90625 7.73145L11.7187 10.8559L14.8431 8.04338L12.0307 4.91897Z" fill="#858FA4"/>
<path d="M19.1351 8.81382L16.7969 10.9243L18.9114 13.267L21.2496 11.1565L19.1351 8.81382Z" fill="#858FA4"/>
<path d="M21.3685 3.7127L19.8086 5.11865L21.2145 6.67853L22.7744 5.27258L21.3685 3.7127Z" fill="#858FA4"/>
<path d="M23.2103 18.4878L20.8672 20.5991L22.9798 22.9437L25.3229 20.8324L23.2103 18.4878Z" fill="#858FA4"/>
<path d="M19.1023 21.1439L16.0483 23.9599L10.8923 18.2219L12.3262 16.9599L8.71625 12.9179L10.1582 11.6539L6.49425 7.61591L12.2123 2.4679L14.0283 4.45591L17.0943 1.71991L18.9063 3.5979L20.1143 2.5159C19.8443 2.3599 19.5742 2.2159 19.3002 2.0859C17.5582 1.2339 15.6023 0.753906 13.5423 0.753906C6.30825 0.753906 0.40625 6.6539 0.40625 13.8899C0.40625 21.1239 6.30825 27.0239 13.5423 27.0239C15.8923 27.0239 18.1063 26.4019 20.0163 25.3119C20.6463 24.9559 21.2202 24.5699 21.7442 24.1639L19.1023 21.1439Z" fill="#858FA4"/>
</svg>
